<svg xmlns="http://www.w3.org/2000/svg" width="185.691" height="185.659" viewBox="0 0 185.691 185.659"><defs><style>.a{fill:#33cc82;}</style></defs><g transform="translate(0.007 -0.062)"><path class="a" d="M140.525,24.306c-2.19-.958-4.543-2.025-6.788-3.12h0c-2.053-.985-4.023-2.025-5.665-3.011a15.874,15.874,0,0,1-3.722-2.737,5.282,5.282,0,0,1-1.7-3.448,1.533,1.533,0,0,1,1.587-1.505h0a4.406,4.406,0,0,1,2.956,1.724h0a19.158,19.158,0,0,0,3.12,2.381c1.724,1.122,3.886,2.381,6.049,3.613h0c2.518,1.4,5.091,2.737,7.225,3.722h0a26.11,26.11,0,0,0,4.215,1.67h0a4.79,4.79,0,0,1,3.2,2,1.834,1.834,0,0,1,.3,1.067,1.232,1.232,0,0,1-.739,1.04h0a3.366,3.366,0,0,1-2.545-.246c-1.4-.547-4.27-1.7-7.609-3.147m-5.994-4.516c2.217,1.095,4.571,2.162,6.733,3.093,3.257,1.423,6.131,2.573,7.554,3.12a3.777,3.777,0,0,0,1.04.328,3.12,3.12,0,0,0-2.107-1.2h0a26.958,26.958,0,0,1-4.707-1.834h0c-2.162-1.04-4.79-2.381-7.308-3.777h0c-2.272-1.259-4.434-2.545-6.158-3.667a19.761,19.761,0,0,1-3.421-2.737h0a3.312,3.312,0,0,0-1.806-1.232h0a3.969,3.969,0,0,0,1.286,2.354h0a15.874,15.874,0,0,0,3.366,2.491c1.56.931,3.5,1.943,5.474,2.928ZM49.578,58.3a123.953,123.953,0,0,1-16.613,6.486h0a16.011,16.011,0,0,1-2.053.411,9.333,9.333,0,0,1-1.67.137,7.225,7.225,0,0,1-4.6-1.587h0a2.217,2.217,0,0,1-.739-.9,1.341,1.341,0,0,1,.356-1.259,3.339,3.339,0,0,1,2.518-.629,19.159,19.159,0,0,0,3.613-.438c1.779-.356,3.968-.876,6.213-1.478,2.928-.794,5.912-1.724,8.211-2.545a24.878,24.878,0,0,0,4.653-1.943h0a4.762,4.762,0,0,1,3.695-.821,1.752,1.752,0,0,1,.958.547,1.177,1.177,0,0,1,.192,1.259,3.312,3.312,0,0,1-1.971,1.615h0Zm-17,4.981A121.764,121.764,0,0,0,49,56.875l2.737-1.232h0a5.31,5.31,0,0,0,.958-.52,3.312,3.312,0,0,0-2.381.629h0a27.369,27.369,0,0,1-5.009,2.08c-2.491.876-5.474,1.806-8.4,2.573-2.272.629-4.489,1.177-6.35,1.533a20.144,20.144,0,0,1-3.941.465h0a2.983,2.983,0,0,0-1.259,0v.164a5.693,5.693,0,0,0,3.75,1.149,10.263,10.263,0,0,0,1.423-.137,9.118,9.118,0,0,0,1.916-.383ZM17.146,145.386c-.575,1.888-1.232,4.27-1.806,6.76s-1.286,5.72-1.67,8.211a19.9,19.9,0,0,0-.383,4.571,4.215,4.215,0,0,1-.438,2.737,1.286,1.286,0,0,1-1.177.52,1.7,1.7,0,0,1-1.067-.547h0a9.032,9.032,0,0,1-1.943-4.9,12.124,12.124,0,0,1,.328-3.886,49.265,49.265,0,0,1,1.368-5.063c1.423-4.27,3.339-8.84,4.461-12.042.438-1.095.794-2.025,1.04-2.737a3.312,3.312,0,0,1,1.505-2.053h0a1.149,1.149,0,0,1,1.259,0,1.806,1.806,0,0,1,.629.931h-.082a4.926,4.926,0,0,1-.629,3.695,20.17,20.17,0,0,0-1.286,3.886Zm-3.23,6.486c.6-2.463,1.259-4.872,1.861-6.842a21.9,21.9,0,0,1,1.505-4.023,3.476,3.476,0,0,0,.52-2.408,4.544,4.544,0,0,0-.493.985c-.219.629-.6,1.587-1.04,2.737-1.2,3.093-3.011,7.691-4.324,11.851a50.415,50.415,0,0,0-1.341,4.9,11.413,11.413,0,0,0-.3,3.339,7.581,7.581,0,0,0,1.478,4.023h0a3.749,3.749,0,0,0,0-1.423,23.647,23.647,0,0,1,.411-4.981C12.657,157.62,13.259,154.691,13.916,151.872Zm49.045-32.651c-.465,2.272-.9,5.036-1.259,7.8s-.575,5.145-.712,7.253a20.061,20.061,0,0,0,0,4.078h0a3.476,3.476,0,0,1-.219,2.573h0a1.286,1.286,0,0,1-1.149.547,1.971,1.971,0,0,1-1.067-.438,7.472,7.472,0,0,1-2.326-4.516h0a13.055,13.055,0,0,1,0-3.448c.137-1.368.383-2.928.712-4.543h0c.9-4.625,2.408-9.99,3.394-13.493l.712-2.737a3.394,3.394,0,0,1,1.286-2.19,1.2,1.2,0,0,1,1.286,0,1.67,1.67,0,0,1,.684.848,4.9,4.9,0,0,1-.164,3.886A21.129,21.129,0,0,0,62.961,119.221Zm-2.737,7.609c.383-2.737.821-5.665,1.259-7.91a27.588,27.588,0,0,1,1.232-4.707,3.421,3.421,0,0,0,.274-2.463,4.433,4.433,0,0,0-.356,1.04l-.739,2.737c-.958,3.476-2.436,8.785-3.339,13.383h0c-.328,1.615-.575,3.093-.712,4.379a12.1,12.1,0,0,0,0,3.011h0a6.1,6.1,0,0,0,1.752,3.558h0a3.5,3.5,0,0,0,0-1.232h0a19.87,19.87,0,0,1,0-4.461,70.54,70.54,0,0,1,.629-7.335Zm62.949-36.866c1.013-.985,2.272-2.107,3.64-3.23h0c3.777-3.12,8.512-6.541,11.44-8.649l1.806-1.314a3.476,3.476,0,0,1,2.381-.876h0a1.259,1.259,0,0,1,.985.821,1.752,1.752,0,0,1,0,1.122,4.844,4.844,0,0,1-2.573,2.737h0a28.874,28.874,0,0,0-4,2.9c-1.888,1.615-4.133,3.64-6.268,5.665s-3.366,3.366-4.653,4.79a19.842,19.842,0,0,0-2.326,2.956,4.324,4.324,0,0,1-2.354,2.326,1.56,1.56,0,0,1-1.314-.192,1.67,1.67,0,0,1-.684-1.177,9.032,9.032,0,0,1,1.806-5.474h0a13.082,13.082,0,0,1,2.107-2.408Zm4.625-2.053c-1.341,1.122-2.573,2.19-3.531,3.147a12.425,12.425,0,0,0-1.834,2.162h0a7.827,7.827,0,0,0-1.587,4.379h0a4.473,4.473,0,0,0,1.4-1.533,20.772,20.772,0,0,1,2.545-3.284c1.286-1.451,2.956-3.147,4.735-4.844s4.406-4.105,6.35-5.747A28.684,28.684,0,0,1,140,79.262h0a3.229,3.229,0,0,0,1.752-1.724,6.676,6.676,0,0,0-.931.575l-1.806,1.314c-2.737,2.08-7.581,5.474-11.358,8.566ZM67.888,95.027v.192h0Zm73.9,2.545c.848-.931,1.642-1.861,2.381-2.737a53.342,53.342,0,0,0,9.114-25.1h0l.192-1.177v-.411a24.8,24.8,0,0,1,7.691-6.049,26.986,26.986,0,0,1,9.388-2.956h2a16.422,16.422,0,0,1,2.19.137,13.971,13.971,0,0,1,2.737.465l1.615.328h0l4.762,1.149V56.464c-1.752-.6-3.366-1.2-4.79-1.752s-2.737-1.177-3.832-1.67a11.687,11.687,0,0,1-4.105-4.6,59.719,59.719,0,0,1-3.476-7.253c-.575-1.341-1.177-2.737-1.752-4.3a72.747,72.747,0,0,0-2.9-6.9h0a61.118,61.118,0,0,0-5.638-10.126A42.038,42.038,0,0,0,147.2,9.554h0c-.739-.52-1.533-1.04-2.354-1.533s-1.615-.931-2.463-1.368a45.6,45.6,0,0,0-32.9-3.558h0a5.776,5.776,0,0,1,.575.9,34.373,34.373,0,0,0,2.025,3.777,173.6,173.6,0,0,0,9.962,14.341c.684.876,1.4,1.752,2.135,2.573a32.214,32.214,0,0,0,2.326,2.408h0a27.369,27.369,0,0,0,10.345,6.131A45.679,45.679,0,0,0,153.8,34.815a28.464,28.464,0,0,1,6.733.219,6.952,6.952,0,0,1,4.16,1.806h0a5.776,5.776,0,0,1,.356.9A80.465,80.465,0,0,0,170.193,50.8h0a1.779,1.779,0,0,1,.274.411h0a2.327,2.327,0,0,1,.356.876h0a1.2,1.2,0,0,1,0,.547h0c-.465,1.286-2.737.848-5.775.246-1.177-.219-2.463-.493-3.777-.684h0c-28.382-2.737-37.222-.712-63.167,4.926L90.33,58.845h0c-2.573.629-6.9-1.806-11.44-4.379a37.578,37.578,0,0,0-10.948-4.872h-.164l-.52-.219h0a64.427,64.427,0,0,0-16.23-4.68,41.874,41.874,0,0,0-8.348-.246,38.317,38.317,0,0,0-9.086,1.724h0A45.679,45.679,0,0,0,7.731,66.946h.657a18.337,18.337,0,0,0,3.065,1.067c4.023,1.149,10.1,2.272,14.451,3.011l2.3.356,1.834.274h0a33.061,33.061,0,0,0,14.889-.9A37.194,37.194,0,0,0,61.538,58.407a12.672,12.672,0,0,1,9.634-5.173,14.533,14.533,0,0,1,7.882,2.737c2.408,1.533,3.968,2.737,4.051,4.16s-1.423,2.518-5.2,3.476h0a46.527,46.527,0,0,0-13.028,6.267,120.149,120.149,0,0,0-15.765,12.4,152.993,152.993,0,0,0-29.476,39,45.048,45.048,0,0,1-5.665,8.813,39.11,39.11,0,0,0-10.948,15.6,29.038,29.038,0,0,0-1.067,13.684,8.851,8.851,0,0,0,.219,1.451l.246,1.451c.547,3.038,2.354,11.358,4.105,17a32.842,32.842,0,0,0,1.423,4,7.418,7.418,0,0,1,.3,1.013H8.223a45.569,45.569,0,0,0,19.432-26.9,37.714,37.714,0,0,0,1.122-6.432,45.514,45.514,0,0,0,0-6.952,66.807,66.807,0,0,0-5.994-23.264h0v-.6c.438-2.737,7.225-13.274,17.872-24.632A141.06,141.06,0,0,1,65.7,73.789c3.667-2.408,5.2-2.272,5.611-.958a7.636,7.636,0,0,1-1.2,4.434,33.554,33.554,0,0,0-1.67,4.981c-1.779,6.158-4.461,15.573-10.072,21.43a34.9,34.9,0,0,0-9.634,16.2h0a29.641,29.641,0,0,0,.356,13.684c.137.575.274,1.095.383,1.587s.274,1.013.438,1.56a169.571,169.571,0,0,0,5.72,16.421,33.007,33.007,0,0,0,1.861,4,6.022,6.022,0,0,1,.411.985h0a45.651,45.651,0,0,0,16.75-28.628,55.971,55.971,0,0,0,.657-5.693c.137-1.806.164-3.5.137-5.091-.411-14.779-7.444-21.32-8.758-22.525a1.1,1.1,0,0,1-.438-.6h0a20.773,20.773,0,0,1,3.476-12.289A70.475,70.475,0,0,1,81.353,67.795h0c1.916-1.752,9.552-4.051,18.611-6.131A296.794,296.794,0,0,1,131.767,56a104,104,0,0,1,22.99.876l2.025.246c3.175.356,4.406,1.149,4.543,2.135s-.9,1.971-2.19,2.737h0a33.445,33.445,0,0,0-5.474,2.737,58.515,58.515,0,0,0-5.638,3.914l-.219.274h-.356A31.255,31.255,0,0,0,133.381,73.1a53.78,53.78,0,0,0-14.1,10.948h0a38.318,38.318,0,0,0-2.737,3.284,19.158,19.158,0,0,0-1.587,2.874,169.3,169.3,0,0,0-5.994,16.421,32.98,32.98,0,0,0-1.013,4.16,7.39,7.39,0,0,1-.3,1.013h0a45.651,45.651,0,0,0,31.064-11.6,37.275,37.275,0,0,0,2.846-2.627Zm3.284-1.888a35.576,35.576,0,0,1-2.491,2.956q-1.368,1.439-2.874,2.737a47.157,47.157,0,0,1-31.994,12.1h-.465c-.794-.246-1.013-1.259-.794-2.737a31.992,31.992,0,0,1,1.067-4.379c1.67-5.72,4.817-13.684,6.049-16.586a20.417,20.417,0,0,1,1.861-3.312,32.539,32.539,0,0,1,2.737-3.421h0A55.586,55.586,0,0,1,132.7,71.846,32.843,32.843,0,0,1,147.2,67.494a54.734,54.734,0,0,1,5.693-3.969,34.458,34.458,0,0,1,5.474-2.737c.794-.547,1.451-1.013,1.423-1.259s-.9-.547-3.175-.821h0l-2.025-.246a101.675,101.675,0,0,0-22.689-.848,293.332,293.332,0,0,0-31.556,5.5c-8.84,2.053-16.2,4.215-17.954,5.775h0A69.846,69.846,0,0,0,71.172,83.97a20.335,20.335,0,0,0-3.339,10.948h0c1.368,1.259,8.813,8.211,9.223,23.619h0v5.227a35.218,35.218,0,0,1-.712,5.83,47.157,47.157,0,0,1-17.3,29.586h-.137l-.274.164h0c-.766.3-1.56-.328-2.326-1.642a31.719,31.719,0,0,1-1.943-4.051c-2.3-5.474-4.954-13.684-5.8-16.7-.137-.493-.274-1.013-.411-1.587s-.3-1.122-.411-1.615a31.173,31.173,0,0,1-.356-14.451h0a36.4,36.4,0,0,1,10.017-16.914c5.337-5.474,7.964-14.752,9.716-20.773a33.471,33.471,0,0,1,1.752-5.474,7.554,7.554,0,0,0,1.122-3.284c0-.192-.9.192-3.284,1.779A141.169,141.169,0,0,0,42.079,96.012c-10.154,10.948-16.722,20.965-17.434,23.729A68.2,68.2,0,0,1,30.775,143.5a52.521,52.521,0,0,1,0,7.171,44.748,44.748,0,0,1-1.177,6.705A47.184,47.184,0,0,1,9.1,185.536h0a.848.848,0,0,1-.274.137h0c-.794.246-1.533-.465-2.162-1.834a35.772,35.772,0,0,1-1.56-4.215,163.75,163.75,0,0,1-4.27-17.133l-.246-1.478a14.249,14.249,0,0,0-.219-1.505,30.571,30.571,0,0,1,1.149-14.314,40.506,40.506,0,0,1,11.413-16.257,45.049,45.049,0,0,0,5.474-8.43A154.251,154.251,0,0,1,48.072,81.069a123.353,123.353,0,0,1,15.956-12.59A49.264,49.264,0,0,1,77.521,62.02h0c2.9-.739,4.051-1.314,4.023-1.888s-1.314-1.642-3.312-2.928a13.165,13.165,0,0,0-7.061-2.408A11.112,11.112,0,0,0,62.687,59.5a38.782,38.782,0,0,1-17.3,12.809,34.676,34.676,0,0,1-15.6.958h0L27.956,73l-2.326-.383C21.224,71.9,15.093,70.751,10.988,69.6a28.026,28.026,0,0,1-3.312-1.149c-1.122-.547-1.7-1.177-1.478-1.916h0a.985.985,0,0,1,0-.246h0A47.184,47.184,0,0,1,32.937,44.832h0A40.451,40.451,0,0,1,42.38,43a47.321,47.321,0,0,1,8.649.274,65.412,65.412,0,0,1,16.613,4.79h0l.438.164a39.575,39.575,0,0,1,11.3,5.036c4.27,2.436,8.211,4.707,10.318,4.215h0l7.636-1.642c26.11-5.693,35-7.636,63.687-4.954h0l3.832.684,3.941.766h0l.027-.438h0a79.591,79.591,0,0,1-5.474-13.52v-.411h0a5.72,5.72,0,0,0-3.23-1.286,28.683,28.683,0,0,0-6.377-.192,46.91,46.91,0,0,1-17.516-1.642,28.683,28.683,0,0,1-10.948-6.486h0c-.848-.794-1.642-1.642-2.408-2.491a32.153,32.153,0,0,1-2.217-2.737c-1.916-2.436-6.979-9.415-10.072-14.506a34.569,34.569,0,0,1-2.107-3.968c-.6-1.4-.657-2.408,0-2.737h.274a47.157,47.157,0,0,1,34.293,3.175c.9.438,1.752.9,2.737,1.423A28.133,28.133,0,0,1,148.188,8.1h0a43.243,43.243,0,0,1,10.537,10.7A64.178,64.178,0,0,1,164.5,29.15a74.941,74.941,0,0,1,3.12,7.171c.52,1.341,1.067,2.737,1.724,4.27a59.146,59.146,0,0,0,3.394,7.089,10.537,10.537,0,0,0,3.448,4c.931.465,2.19,1.013,3.695,1.587l5.282,1.943.52.164v7.882l-.985-.274-.547-.164h0L177.5,61.226l-.766-.192c-.684-.137-1.314-.219-1.888-.3a13.686,13.686,0,0,0-2,0h-1.861a25.371,25.371,0,0,0-8.84,2.737,23.482,23.482,0,0,0-7.089,5.474l-.137.958h0A54.738,54.738,0,0,1,145.068,95.684Z" transform="translate(0 0)"/></g></svg>