<svg xmlns="http://www.w3.org/2000/svg" width="24" height="25" viewBox="0 0 24 25"><defs><style>.a{fill:#fff;}</style></defs><g transform="translate(0 -1.204)"><g transform="translate(0 1.204)"><path class="a" d="M30.208,165.326H16.745a2.309,2.309,0,0,1-2.3-2.313L12.54,154a2.154,2.154,0,0,1,.961-4.082H33.19a2.162,2.162,0,0,1,1.259,3.915l-1.958,9.326A2.257,2.257,0,0,1,30.208,165.326ZM13.5,151.341a.745.745,0,0,0-.742.747.733.733,0,0,0,.567.7.706.706,0,0,1,.515.543l2,9.54a.951.951,0,0,0,.9,1.036H30.206a.887.887,0,0,0,.884-.89l2.037-9.775a.71.71,0,0,1,.379-.493.736.736,0,0,0,.424-.658.745.745,0,0,0-.742-.747H13.5Z" transform="translate(-11.346 -140.326)"/><path class="a" d="M101.49,227.126a.5.5,0,0,1-.5.5h-.137a.5.5,0,0,1-.5-.5v-5.86a.5.5,0,0,1,.5-.5h.138a.5.5,0,0,1,.5.5v5.86Z" transform="translate(-94.27 -206.3)"/><path class="a" d="M154.747,227.126a.5.5,0,0,1-.5.5h-.14a.5.5,0,0,1-.5-.5v-5.86a.5.5,0,0,1,.5-.5h.138a.5.5,0,0,1,.5.5v5.86Z" transform="translate(-143.887 -206.3)"/><path class="a" d="M208.035,227.126a.5.5,0,0,1-.5.5H207.4a.5.5,0,0,1-.5-.5v-5.86a.5.5,0,0,1,.5-.5h.138a.5.5,0,0,1,.5.5Z" transform="translate(-193.536 -206.3)"/><path class="a" d="M261.326,227.126a.5.5,0,0,1-.5.5h-.138a.5.5,0,0,1-.5-.5v-5.86a.5.5,0,0,1,.5-.5h.138a.5.5,0,0,1,.5.5Z" transform="translate(-243.186 -206.3)"/><path class="a" d="M74.184,0a8.3,8.3,0,0,0-8.26,8.34h1.494a6.765,6.765,0,1,1,13.53,0h1.494A8.3,8.3,0,0,0,74.184,0Z" transform="translate(-62.169)"/></g></g></svg>