<svg xmlns="http://www.w3.org/2000/svg" width="182" height="49.755" viewBox="0 0 182 49.755"><defs><style>.a{fill:#fff;}.a,.b{fill-rule:evenodd;}.b{fill:#33cc82;}</style></defs><g transform="translate(0)"><path class="a" d="M12.206,19.844H10.99v-.108a2.162,2.162,0,0,0,.973-.919,2.918,2.918,0,0,0,.324-1.27V4.74a1.648,1.648,0,0,0-.432-1.054,4.026,4.026,0,0,0-.838-.757V2.74h8.295a3.134,3.134,0,0,0,1.108-.27h.486a1.891,1.891,0,0,1-.189.594,2.6,2.6,0,0,1-.378.811,6.647,6.647,0,0,0-.567,1.378.243.243,0,0,1,0,.162.189.189,0,0,1-.162,0s0,0,0-.405a2,2,0,0,0,0-.486A.621.621,0,0,0,18.8,3.9a1.486,1.486,0,0,0-.648,0H14.665a3.458,3.458,0,0,0-.216,1.081c0,1.567-.162,3.675-.162,6.242v6.755a2.432,2.432,0,0,0,.324,1.108H14.8a8.835,8.835,0,0,0,1.081,0,6.268,6.268,0,0,0,1.432,0,4.08,4.08,0,0,0,1.216-.486,3.729,3.729,0,0,0,1.189-1.324,3.269,3.269,0,0,0,.432-1.648,6.863,6.863,0,0,0-.216-1.891,3.188,3.188,0,0,0-.73-1.405A3.7,3.7,0,0,0,17.8,11.44a5.4,5.4,0,0,0-1.675-.351,4.566,4.566,0,0,0-.865,0,4.35,4.35,0,0,1-.838,0s-.135,0-.135-.216,0-.189.189-.27a1.27,1.27,0,0,1,.513-.189h1.432a11.943,11.943,0,0,1,2.053.162,4.3,4.3,0,0,1,1.7.73,5.4,5.4,0,0,1,1.621,1.81,4.566,4.566,0,0,1,.648,2.3,4.485,4.485,0,0,1-.621,2,4,4,0,0,1-1.54,1.675,5.188,5.188,0,0,1-1.513.594,6.052,6.052,0,0,1-1.594.216,38.134,38.134,0,0,0-4.972,0" transform="translate(18.62 4.183)"/><path class="a" d="M27.9,19.741v-.054a2.189,2.189,0,0,1-.919-.784,2.918,2.918,0,0,1-.351-1.216c0-2-.135-3.81-.162-5.4l.811-.919h0c.486.486.946,1,1.405,1.54l1.81,1.972.811,1.081.7.865c.432.594.784,1.027,1.081,1.378a7.619,7.619,0,0,0,.973.892,4.269,4.269,0,0,0,1.243.675,4,4,0,0,0,1.54.27,4.35,4.35,0,0,0,1.621-.27c.459-.162.7-.3.7-.405H38.68a1.432,1.432,0,0,1-.621,0A3.242,3.242,0,0,1,35.9,18.309a27.993,27.993,0,0,1-2.891-3.323l-1.378-1.648-1.621-2.053c-.432-.513-.811-1.027-1.162-1.513l.405-.432,2.216-2.4c.621-.675,1.243-1.3,1.864-1.918a16.726,16.726,0,0,1,1.7-1.486,5.971,5.971,0,0,1,1.7-.946H32.3a1.4,1.4,0,0,1,.162.594,2.351,2.351,0,0,1-.243.973,6.7,6.7,0,0,1-.594,1.027c-.648.838-1.432,1.756-2.324,2.7S27.521,9.8,26.6,10.717V5.07a6,6,0,0,1,.324-1.486,1.621,1.621,0,0,1,.865-.919V2.53H23.36v.135a2.324,2.324,0,0,1,.919,1.027,3.972,3.972,0,0,1,.27,1.324,26.467,26.467,0,0,0,.135,3.242,26.4,26.4,0,0,1,0,3.269v6.3a2.243,2.243,0,0,1-.351,1.108,2.351,2.351,0,0,1-.865.757v.162" transform="translate(39.673 4.285)"/><path class="a" d="M40.251,19.646a1.486,1.486,0,0,0,.919-.189,1.432,1.432,0,0,0,.324-.567h0a5.89,5.89,0,0,1,.594-1.3l.378-.675a.919.919,0,0,0,0-.432.169.169,0,0,0-.189-.162c-.189,0-.243.162-.567.54a9.836,9.836,0,0,1-1.216,1.3,3.026,3.026,0,0,1-1.27.594,9.43,9.43,0,0,1-1.648.135,9.3,9.3,0,0,1-1.243,0,4.08,4.08,0,0,1-1.135-.27,2.135,2.135,0,0,1-.892-.54,1.459,1.459,0,0,1-.405-.946V11.486h3.4a6.241,6.241,0,0,1,1.513.324,1.7,1.7,0,0,1,.946.838H39.9V9.19h-.135a2.378,2.378,0,0,1-1.054.919,3.837,3.837,0,0,1-1.324.27h-3.54V4.651a6.377,6.377,0,0,1,.135-1.108H36.55a7.214,7.214,0,0,1,2.432.3,2.351,2.351,0,0,1,1.135.784l.135.27a.293.293,0,0,0,.27.3c.081,0,0,0,0-.189V4.191a6.08,6.08,0,0,1,0-1.108c0-.189-.189-.3-.567-.351a10.808,10.808,0,0,0-1.486,0h-6.4L30.281,2.57H30.2v.243a2.972,2.972,0,0,1,1.189,1,2.513,2.513,0,0,1,.405,1.216,26.466,26.466,0,0,0,.135,3.242,26.4,26.4,0,0,1,0,3.269v5.539a1.864,1.864,0,0,1-.162.7,4.485,4.485,0,0,1-.351.73,3,3,0,0,1-.513.621,2.081,2.081,0,0,1-.513.405v.405H31.9" transform="translate(51.315 4.353)"/><path class="a" d="M50.686,2.5H50.2a3.134,3.134,0,0,1-1.108.27H38.608a1.621,1.621,0,0,1-1.243-.378h-.243a6.591,6.591,0,0,1-.432,1.081l-.162.567a2.837,2.837,0,0,1-.432.675,2.3,2.3,0,0,0-.405.757l.135.135a.72.72,0,0,0,.54-.351l.27-.243a7.052,7.052,0,0,1,.757-.459,3.7,3.7,0,0,1,.757-.27,10.97,10.97,0,0,1,1.891-.243h2.27V18.115a2.161,2.161,0,0,1-.351,1.108,2.7,2.7,0,0,1-.865.757v.27h4.512v-.27a1.891,1.891,0,0,1-.973-.784,2.7,2.7,0,0,1-.351-1.189q-.162-3.323-.162-6.242V3.93h3.7a1.486,1.486,0,0,1,.648.189.7.7,0,0,1,.378.459,2,2,0,0,1,0,.486q0,.405,0,.405h.162a.162.162,0,0,0,0-.162,7.268,7.268,0,0,1,1.027-1.27c.162-.324.3-.594.378-.811a1.892,1.892,0,0,0,.189-.594" transform="translate(60.658 4.047)"/><path class="a" d="M53.087,19.944c.319.038.317-.326.594-.486a1,1,0,0,0,.432-.567h0a6.377,6.377,0,0,1,.621-1.3c.162-.27.27-.513.351-.675a1,1,0,0,0,0-.432.169.169,0,0,0-.189-.162c-.189,0-.27.162-.567.54a11.862,11.862,0,0,1-1.243,1.3,2.891,2.891,0,0,1-1.27.594,9.431,9.431,0,0,1-1.648.135H48.953a3.864,3.864,0,0,1-1.135-.27,2.08,2.08,0,0,1-.919-.54,1.3,1.3,0,0,1-.378-.946,18.887,18.887,0,0,0-.135-2.945,17.974,17.974,0,0,1,0-2.7h3.4a5.755,5.755,0,0,1,1.621.351,1.621,1.621,0,0,1,.946.838h.162V10.946a4.19,4.19,0,0,1,0-.594,5.4,5.4,0,0,1,0-.594,4.027,4.027,0,0,0,0-.567h0a2.324,2.324,0,0,1-1.027.919,3.972,3.972,0,0,1-1.324.27H46.387V4.651a5.782,5.782,0,0,1,.162-1.108h2.567a6.944,6.944,0,0,1,2.4.3,2.107,2.107,0,0,1,1.135.784,1.189,1.189,0,0,1,.162.27.293.293,0,0,0,.27.3c.081,0,0,0,0-.189a5,5,0,0,0,0-.811,10.075,10.075,0,0,1,0-1.108c0-.189-.189-.3-.567-.351a10.105,10.105,0,0,0-1.459,0h-6.3l-1.81-.162H42.82v.243a2.972,2.972,0,0,1,1.189,1,2.3,2.3,0,0,1,.432,1.216q0,1.581,0,3.242v8.808a1.783,1.783,0,0,1,0,.7,4.7,4.7,0,0,1-.378.73,4.162,4.162,0,0,1-.486.621,2.161,2.161,0,0,1-.54.405v.405h2.486" transform="translate(72.793 4.353)"/><path class="a" d="M51.213,2.732H48.889v.189a2.243,2.243,0,0,1,1,.919,3.377,3.377,0,0,1,.3,1.27c0,1.027,0,2.108,0,3.215v9.592a1.675,1.675,0,0,1-.459,1.054,3.269,3.269,0,0,1-1.027.757v.216h4.782v-.3a1.972,1.972,0,0,1-.919-.7,2.7,2.7,0,0,1-.351-1.27V5.083a3.185,3.185,0,0,1,0-.432,3.944,3.944,0,0,1,.162-1.081h1.486a6.458,6.458,0,0,1,1.432.162,3.486,3.486,0,0,1,1.216.486A4,4,0,0,1,57.7,5.542,3.567,3.567,0,0,1,58.13,7.19a7.863,7.863,0,0,1-.216,1.864,3.459,3.459,0,0,1-.757,1.432,3.594,3.594,0,0,1-1.378.892,4.35,4.35,0,0,1-2.54.243,4.566,4.566,0,0,0-.865,0v.216c0,.216,0,.189.189.27a1.27,1.27,0,0,0,.513.189,8.727,8.727,0,0,0,3.242,0,4.242,4.242,0,0,0,1.729-.73,5.863,5.863,0,0,0,1.621-1.81,4.566,4.566,0,0,0,.648-2.54,4.837,4.837,0,0,0-.54-2.162,4.377,4.377,0,0,0-1.54-1.675,5.4,5.4,0,0,0-1.513-.594A6.242,6.242,0,0,0,55.1,2.57H51.24" transform="translate(82.801 4.353)"/><path class="a" d="M57.954,2.5v.189a2.053,2.053,0,0,0-.865.973,4.512,4.512,0,0,0-.243,1.378V16.2h.162L68.491,2.689h2.08v.189a2.7,2.7,0,0,0-.919.973A3.7,3.7,0,0,0,69.3,5.067v13a2.162,2.162,0,0,0,.351,1.108,2.351,2.351,0,0,0,.865.757v.162H66.735v-.351a2.107,2.107,0,0,0,.892-.784,2.918,2.918,0,0,0,.351-1.216q.162-3.323.162-6.242V6.418h0L56.332,19.711c-.324.405-.54.594-.621.594s-.189-.243-.189-.243V5.148A6,6,0,0,0,55.2,3.662a1.621,1.621,0,0,0-.838-.946V2.581h2.216a3.7,3.7,0,0,0,.811,0h.594" transform="translate(92.434 4.234)"/><path class="a" d="M41.106,36.206c.459-1.054,1.054-2.216,1.3-2.7s.567,0,.189.432a10.214,10.214,0,0,0-1,2.189,8.457,8.457,0,0,0-.594,2c0,.757-.54.757-.513,0a6.187,6.187,0,0,1,.621-1.891m-19.7,5.89a30.047,30.047,0,0,1,3.648-1.216c.675-.216.459.351,0,.432a12.915,12.915,0,0,0-2.432.946,9.105,9.105,0,0,0-1.675.919c-.54.513-.621-.162,0-.73A3.027,3.027,0,0,1,21.408,42.124ZM8.25,31.8a13.943,13.943,0,0,0,1.756,1.135c.567.189.675.784,0,.459s-1.594-.865-2.54-1.432A5.08,5.08,0,0,1,6.2,30.937c-.54-.865-.27-1.324.135-.73A11.888,11.888,0,0,0,8.25,31.8Zm9.619-2a14.429,14.429,0,0,0,1.837,1.459c.54.243.594.865,0,.459s-1.621-1.081-2.54-1.783a4.512,4.512,0,0,1-1.027-1.027c-.405-.73-.135-1.324.216-.675A10,10,0,0,0,17.869,29.8Zm14.185-2.351a6.215,6.215,0,0,1-1.432,0c-1.27-.432-.973-.973-.3-.675a10.375,10.375,0,0,0,1.972.27,14.294,14.294,0,0,0,2.54,0c.567-.135,1,.3.3.351s-1.918.027-3.08.054Zm1.54-3.215a8.3,8.3,0,0,0-1.378-.189,8.7,8.7,0,0,0-5.944,2.162c-.324.27,2.837,2,3.675,2.4a4.755,4.755,0,0,0,1.432.405,8.538,8.538,0,0,0,5.944-1.3,9.592,9.592,0,0,0,2.4-.378c.486,0,.838,0,.162.73a21.021,21.021,0,0,1-3.4,3.161,37.557,37.557,0,0,1-8.511,4.377c-1.027,0-4.647-.757-5.4-2.053a5.809,5.809,0,0,0-1.513-4.431,11.942,11.942,0,0,0-1.432-1.459,8.565,8.565,0,0,0-5.971-2.081c-.405,0,.946,3.35,1.351,4.215l.27.54a5.62,5.62,0,0,0,5,3.161,14.536,14.536,0,0,1,4.836,2.351c.567.243,1.162.594-.162.757A24.8,24.8,0,0,1,13.3,35.261a12.483,12.483,0,0,0-1.972-4.107A8.106,8.106,0,0,0,9.493,29.37a8.7,8.7,0,0,0-6.133-1.513c-.405,0,1.27,3.242,1.729,4.053l.3.486a5.863,5.863,0,0,0,5.4,2.7A43.934,43.934,0,0,0,21.6,37.8a15.374,15.374,0,0,0,6.4-.838c1.162-.567,1.189-.162.892.784a2.081,2.081,0,0,1-2.7,1.621,6.025,6.025,0,0,0-6.214,1.972l-.513.594c-.892,1.054-2.351,2.891-2.026,3a8.592,8.592,0,0,0,6.3-.162,7.728,7.728,0,0,0,2.7-1.918,13.51,13.51,0,0,0,1.81-2.7c.811-.919,1.27-3.594,2.026-3.972A33.045,33.045,0,0,0,41.079,28.56c.567-.621.973-1.3,1.135-1.189h0a18.914,18.914,0,0,0,.919,2.7c0,.3-.378.838-1.243,1.486a6.269,6.269,0,0,0-2.837,4.647,6.646,6.646,0,0,0,0,1.27c0,.946.324,4.512.7,4.35a8.646,8.646,0,0,0,4.377-4.539,8.916,8.916,0,0,0,.351-1,9.592,9.592,0,0,0-.216-4.918,10.983,10.983,0,0,0-.7-2.189,4.566,4.566,0,0,1-.351-2.513c.162-.405.54-1.027.973-1.81,1.459-1.378,5.188-11.024,6.079-13.24l.54-1.324,1.135-2.7.973-2.216a8.7,8.7,0,0,1,.919-1.594,3.107,3.107,0,0,1,1.216-.946H50.59a1.27,1.27,0,0,1,.784.432,1.162,1.162,0,0,1,.243.757,3.3,3.3,0,0,1,0,.7l-.243.675-.567,1.675-1.108,3c-.3.811-.567,1.54-.838,2.216l-.432,1c-.621,1.513-1.081,2.7-1.351,3.323h-.216l-.378-.919c-.811-1.81-1.405-3.188-1.783-4.161l-.189-.432c-.459-1.189-.892-2.243-1.27-3.188s-.7-1.837-1.027-2.7a3.675,3.675,0,0,1-.324-1.432A1.189,1.189,0,0,1,42.376,2.7V2.54H37.917V2.7a3.323,3.323,0,0,1,1.189.892,7.349,7.349,0,0,1,.675,1.243V5l.162.378c.675,1.432,1.189,2.7,1.621,3.594a28.441,28.441,0,0,1,1.108,2.7c.324.892.432,1,.675,1.567l.811,1.864,1.3,2.972.405.946a22.75,22.75,0,0,1-2.7,5.161L42.4,25.236h0a4.918,4.918,0,0,1-.621.648l-.3.216a4.809,4.809,0,0,1-3.4.757A10.538,10.538,0,0,0,33.594,24.237Z" transform="translate(5.527 4.302)"/><path class="a" d="M74.539,5.076V4.616a3.89,3.89,0,0,0-.216-.919H72.836a12.915,12.915,0,0,0-1.54,0,2.972,2.972,0,0,0-1.162.432,3.783,3.783,0,0,0-1.162,1.351,3.945,3.945,0,0,0-.405,1.729,4.35,4.35,0,0,0,.892,3.026,4.3,4.3,0,0,0,3.161.946h1.972V5.211M77.97,2.86v.189a2.107,2.107,0,0,0-.946.648,3.513,3.513,0,0,0-.324,1.27V17.775a1.648,1.648,0,0,0,.324,1.054,3.756,3.756,0,0,0,1.054.757v.324H73.3v-.3a2.134,2.134,0,0,0,.919-.7,2.486,2.486,0,0,0,.324-1.27c0-1.648.189-3.486.189-5.566H72.053A16.217,16.217,0,0,0,71,13.4l-1.243,1.837c-.567.892-1.054,1.594-1.459,2.162a12.454,12.454,0,0,1-1.378,1.567,5.944,5.944,0,0,1-1.783.946,4.891,4.891,0,0,1-2.108.432h-.54l-.648-.162a2.513,2.513,0,0,1-.54-.27.351.351,0,0,1-.189-.27h.973a3.134,3.134,0,0,0,1.729-.567,8.755,8.755,0,0,0,1.675-1.54,22.125,22.125,0,0,0,1.486-1.972c.459-.675.973-1.513,1.594-2.513s.675-1.108.838-1.324a3.215,3.215,0,0,1-.973-.459,4.215,4.215,0,0,1-1.486-1.729,4.7,4.7,0,0,1-.54-2.27,4.81,4.81,0,0,1,.513-2.189A3.513,3.513,0,0,1,68.432,3.4a4.485,4.485,0,0,1,1.54-.594,7.458,7.458,0,0,1,1.621-.216H73.4Z" transform="translate(103.922 4.387)"/><path class="a" d="M12,5.95l.243.838c.3-.54.973-.7,2.3-.865h.838L14.324,5.41A8.7,8.7,0,0,0,12,6.031" transform="translate(20.339 9.186)"/><path class="a" d="M51.524,6.308A4.242,4.242,0,0,1,49.93,5.66v.675c.189.3.7.486,1.594.594V6.308" transform="translate(84.894 9.612)"/><path class="b" d="M5.513,26.52a2.7,2.7,0,0,1-1.7-.54c-.54-.378-.3-.594,0-.351a3.053,3.053,0,0,0,1.54.459c.432,0,.621.405,0,.432m4.431-5.4a2.7,2.7,0,0,0-1.594-.243c-.405.162-.675-.324-.162-.432a2.7,2.7,0,0,1,1.756.3c.757.27.54.486.162.324Zm6.052-3.945c-.432,0-.405-.594,0-.432a2.135,2.135,0,0,1,1.351,1.135C17.7,19.117,16.159,17.252,15.834,17.171Zm7.3,2.108a2.7,2.7,0,0,1-.324-1.756c0-.486.567-.243.432.162a2.7,2.7,0,0,0,.27,1.594c.189.378-.054.594-.378,0Zm-1.756,6.187a2.54,2.54,0,0,1-1.783,0c-.621-.243-.432-.486,0-.351a3.053,3.053,0,0,0,1.648,0C21.562,24.872,21.86,25.3,21.373,25.466ZM20.725,4.5c.486.216.243-1.54,0-1.783S20.374,4.337,20.725,4.5ZM16.672,9.66c0-.405-.675-1.216-.757-.892S16.645,10.038,16.672,9.66Zm7.592-.973c0-.594-1.405-.243-1.54.216S23.994,9.2,24.264,8.687ZM21.049.527a13.132,13.132,0,0,1,1.027,3.431,5.242,5.242,0,0,1-1.189,3.188,5.62,5.62,0,0,0-1.513,3.783c.3,1.27.378,1.162.648.486s2.053-3.891,3.486-4.242a16.671,16.671,0,0,1,3.08,0c.3-.135.486,0,0,.567S25.967,9.5,24.7,9.957s-3.756-.432-4.269,1.432a4.323,4.323,0,0,0,0,2.459c.216.7-.162.838-.432.459s-1.135-1.81-1.972-2.026-4.053-2.4-2.7-5.4.73-1.108.757-.54S17.347,7.8,17.51,8.579s-.162,1.729.243,2.243c.7.946,1.918,1.864,1.3.243a5.917,5.917,0,0,1,1.405-4.3c1-1-1.351-1.675-1.216-3.486s1.216-2.189,1.3-2.864S20.968-.013,21.049.527ZM24.8,24.845c-.54-.189-1.378.189-1.837.162s-.865-.838-2-1.3-2.7.405-3.3.405-1,0-.648.567a6.506,6.506,0,0,0,2.7,2.3c1.918.405,2.972-1.108,4.161-1.594s4.08,1.729,4.809,2.27,1.351,0,.216-.675a14.509,14.509,0,0,1-3.35-3.242c-.216-.378-1.108-2.135-1.3-2.486s.648-2.162.973-3.053-1.351-2.918-1.216-3.621-.324-.567-1.189,0a3.891,3.891,0,0,0-.784,4.972c.973,1.324,2.026,2.026,2.4,2.7s.648,1.216,0,.946A18.022,18.022,0,0,1,20,21.305c-.811-.784-.324-3.594-2.432-5.4a13.51,13.51,0,0,0-4.7-1.3c-.594,0-1.162,0,0,.486s.432,2.351,2.108,3.81c.675.594,2.7.811,3.377,1.216s1.108,1.621.162,1.351-5.4.162-6.269-.189-1.054-1.594-2.459-2.351-3.026,1.594-4.431.54c-.54-.405-1.135-.7-.73,0a11.105,11.105,0,0,0,3.026,3.161c1.162.648,4.08-.459,4.593-.432s.865.243.486.594a33.829,33.829,0,0,1-5.026,2.7A11.942,11.942,0,0,0,5,24.169c-1.567-.378-2.7.513-4.323-.567-.513-.324-.865-.135-.486.459a8.862,8.862,0,0,0,3.242,3.513c2.108,1.3,4.134-1.027,4.593-1.351a57.308,57.308,0,0,0,5.431-3.242c3.377-2.243,9.943.73,10.808,1.108s1.621,1,.54.621Z" transform="translate(-0.031 -0.008)"/></g></svg>