<svg xmlns="http://www.w3.org/2000/svg" width="18.93" height="24.534" viewBox="0 0 18.93 24.534"><defs><style>.a{fill:#33cc82;}</style></defs><g transform="translate(-53.979)"><path class="a" d="M72.84,23.527a10.389,10.389,0,0,0-5.69-5.176v-1.5c1.225-.067,3.535-.379,4.89-1.765a.707.707,0,0,0,.176-.67.7.7,0,0,0-.488-.493c-.021-.005-1.807-.618-1.448-4.272a15.873,15.873,0,0,0-.073-4.163,6.333,6.333,0,0,0-1.381-3.224,3.692,3.692,0,0,0-2.855-1.23h-.135A4.358,4.358,0,0,0,62.95,0,5.948,5.948,0,0,0,60.8.426l-.031.01A5.321,5.321,0,0,0,58.2,2.279c-1.064,1.412-1.573,3.5-1.511,6.214s-.384,4.044-.768,4.683c-.317.524-.618.628-.7.649a.637.637,0,0,0-.613.343.709.709,0,0,0,.067.758,3.7,3.7,0,0,0,1.3,1.054,8.594,8.594,0,0,0,3.733.908v1.428a10.435,10.435,0,0,0-5.664,5.217.7.7,0,0,0,.628,1H72.212a.7.7,0,0,0,.592-.327A.719.719,0,0,0,72.84,23.527Zm-16.97-.4a8.987,8.987,0,0,1,4.75-3.655.7.7,0,0,0,.488-.664V16.2a.7.7,0,0,0-.706-.7,7.43,7.43,0,0,1-3.9-.836c.047-.047.1-.093.151-.145,1.023-1.064,1.505-3.1,1.438-6.053-.135-5.456,2.186-6.339,3.172-6.712l.031-.01a4.742,4.742,0,0,1,1.651-.332,2.8,2.8,0,0,1,2.082.8.683.683,0,0,0,.6.249c.114-.01.228-.016.337-.016a2.311,2.311,0,0,1,1.817.768c.986,1.09,1.391,3.39,1.1,6.307-.291,2.943.628,4.418,1.422,5.134a8.312,8.312,0,0,1-3.738.815h-.1a.713.713,0,0,0-.509.2.7.7,0,0,0-.213.5v2.684a.7.7,0,0,0,.488.664A9.072,9.072,0,0,1,71,23.138H55.869Z" transform="translate(0)"/></g></svg>