<svg xmlns="http://www.w3.org/2000/svg" width="72.025" height="72.185" viewBox="0 0 72.025 72.185"><defs><style>.a{fill:#33cc82;fill-rule:evenodd;}</style></defs><g transform="matrix(-0.966, 0.259, -0.259, -0.966, 72.025, 56.976)"><path class="a" d="M42.513,6.336c1.814.869,3.778,1.7,4.61,2s.793-.567-.227-.756a23.578,23.578,0,0,1-3.778-1.776,17.38,17.38,0,0,1-2.985-2.04c-.869-.945-1.511-.378-.567.68A11.9,11.9,0,0,0,42.513,6.26M10.132,20.278a59.321,59.321,0,0,0,6.159-2.456c1.134-.491.189-.982-.68-.416a21.877,21.877,0,0,1-4.232,1.474,13.451,13.451,0,0,1-3.212.6c-1.247,0-.642.945.831.945a4.685,4.685,0,0,0,1.134-.151ZM4.314,48.427a19.345,19.345,0,0,1,1.02-3.4c.529-.869,0-1.814-.416-.642A39.359,39.359,0,0,0,3.18,49.107a8.69,8.69,0,0,0-.529,2.758c.264,1.7,1.134,2.04.982.793a17.834,17.834,0,0,1,.68-4.232Zm14.811-8.048a20.63,20.63,0,0,1,.793-3.778c.416-.945,0-1.814-.529-.642A28.135,28.135,0,0,0,18.1,41.1a7.028,7.028,0,0,0-.227,2.494c.264,1.4,1.285,1.889,1.058.68a17.834,17.834,0,0,1,.189-3.892Zm21.2-12.658A8.54,8.54,0,0,0,38.546,29.5c-1.171,1.927-.227,2.3.378,1.171a15.529,15.529,0,0,1,2.267-2.532,24.37,24.37,0,0,1,3.325-2.8c.945-.453.982-1.511,0-.793s-2.683,1.889-4.194,3.174Zm5.554,2.494a10.92,10.92,0,0,1-1.7,1.814A15.114,15.114,0,0,1,34.05,35.807c-.718,0,1.474-5.781,2.116-7.255a8.237,8.237,0,0,1,1.474-2.116,14.7,14.7,0,0,1,9.219-4.912,14.4,14.4,0,0,1,3.778-2.191c.68-.453,1.1-.907-.642-1.134a36.386,36.386,0,0,0-7.972-.34,62.5,62.5,0,0,0-15.983,3.778c-1.549,1.02-5.441,6.121-4.988,8.577A9.824,9.824,0,0,1,24,37.772a16.776,16.776,0,0,1-.264,3.514,14.7,14.7,0,0,1-5.479,9.333c-.567.453-2.494-5.441-2.909-6.952a10.127,10.127,0,0,1-.378-1.058,9.673,9.673,0,0,1,3.023-9.824,24.182,24.182,0,0,0,3.778-8.426c.491-.945.907-2.078-1.058-.793a42.507,42.507,0,0,0-13.6,14.7A21.008,21.008,0,0,1,9.074,45.82,13.489,13.489,0,0,1,8.659,50.2a14.774,14.774,0,0,1-6.31,8.766c-.6.378-1.965-5.668-2.229-7.217,0-.34,0-.642,0-.945a10.24,10.24,0,0,1,3.778-9.6A73.642,73.642,0,0,1,15.233,26.1a25.92,25.92,0,0,1,9.333-6.046c2.116-.529,1.7-1.1.264-2a3.778,3.778,0,0,0-5.29.793A10.126,10.126,0,0,1,9.188,22.961l-1.322-.3C5.485,22.281,1.555,21.487,1.82,21a15.114,15.114,0,0,1,8.464-6.8,13.036,13.036,0,0,1,5.668-.491,22.255,22.255,0,0,1,5.441,1.587c2.078.3,5.668,3.325,7.028,2.947A57.659,57.659,0,0,1,51.09,16.122c1.4.227,2.683.6,2.758.34a.793.793,0,0,0,0-.227,29.547,29.547,0,0,1-1.738-4.459c-.378-.453-1.474-.718-3.136-.453a11,11,0,0,1-8.917-2.532,15.114,15.114,0,0,1-1.474-1.625C37.413,5.769,33.861.744,34.5.555A14.7,14.7,0,0,1,45.2,1.613a15.982,15.982,0,0,1,1.587.945A16.247,16.247,0,0,1,52,9.207c.416.793.945,2.229,1.549,3.778a8.048,8.048,0,0,0,2.3,3.778A29.813,29.813,0,0,0,58.761,17.9v2h-.189l-2.04-.756h0a9.825,9.825,0,0,0-1.587,0h-.68a8.426,8.426,0,0,0-5.29,2.8A18.288,18.288,0,0,1,45.876,30.215Z" transform="translate(0)"/></g></svg>