<svg xmlns="http://www.w3.org/2000/svg" width="103.27" height="103.666" viewBox="0 0 103.27 103.666"><defs><style>.a{fill:#33cc82;fill-rule:evenodd;}</style></defs><g transform="translate(-0.038 -0.003)"><path class="a" d="M74.754,11.138c3.187,1.527,6.64,2.988,8.1,3.519s1.395-1-.4-1.328a41.436,41.436,0,0,1-6.64-3.121,30.546,30.546,0,0,1-5.246-3.586c-1.527-1.66-2.656-.664-1,1.2a20.917,20.917,0,0,0,5.18,3.187M17.845,35.641a104.254,104.254,0,0,0,10.824-4.316c1.992-.863.332-1.727-1.2-.73a38.448,38.448,0,0,1-7.437,2.59,23.64,23.64,0,0,1-5.644,1.062c-2.191,0-1.129,1.66,1.461,1.66a8.235,8.235,0,0,0,1.992-.266ZM7.619,85.112a34,34,0,0,1,1.793-5.976c.93-1.527,0-3.187-.73-1.129s-2.258,4.98-3.055,8.3a15.273,15.273,0,0,0-.93,4.848c.465,2.988,1.992,3.586,1.727,1.394a31.343,31.343,0,0,1,1.2-7.437ZM33.65,70.968a36.258,36.258,0,0,1,1.395-6.64c.73-1.66,0-3.187-.93-1.129s-1.594,5.644-2.258,9.031a12.351,12.351,0,0,0-.4,4.383c.465,2.457,2.258,3.32,1.859,1.2a31.343,31.343,0,0,1,.332-6.84ZM70.9,48.723a15.008,15.008,0,0,0-3.121,3.121c-2.059,3.387-.4,4.051.664,2.059a27.292,27.292,0,0,1,3.984-4.449,42.83,42.83,0,0,1,5.844-4.914c1.66-.8,1.727-2.656,0-1.394s-4.715,3.32-7.371,5.578Zm9.761,4.383a19.191,19.191,0,0,1-2.988,3.187,26.562,26.562,0,0,1-17.8,6.64c-1.262,0,2.59-10.16,3.719-12.75a14.476,14.476,0,0,1,2.59-3.719,25.831,25.831,0,0,1,16.2-8.633,25.3,25.3,0,0,1,6.64-3.851c1.2-.8,1.926-1.594-1.129-1.992a63.948,63.948,0,0,0-14.011-.6A109.834,109.834,0,0,0,45.8,38.032c-2.723,1.793-9.562,10.758-8.765,15.074a17.265,17.265,0,0,1,5.18,13.281,29.483,29.483,0,0,1-.465,6.176,25.831,25.831,0,0,1-9.629,16.4c-1,.8-4.383-9.562-5.113-12.218a17.8,17.8,0,0,1-.664-1.859,17,17,0,0,1,5.312-17.265A42.5,42.5,0,0,0,38.3,42.813c.863-1.66,1.594-3.652-1.859-1.394A74.705,74.705,0,0,0,12.533,67.25a36.921,36.921,0,0,1,3.453,13.281,23.706,23.706,0,0,1-.73,7.7,25.964,25.964,0,0,1-11.09,15.406C3.1,104.3.713,93.679.248,90.956V89.3a18,18,0,0,1,6.64-16.867A129.423,129.423,0,0,1,26.81,45.867a45.554,45.554,0,0,1,16.4-10.625c3.719-.93,2.988-1.926.465-3.519a6.64,6.64,0,0,0-9.3,1.394,17.8,17.8,0,0,1-18.195,7.238l-2.324-.531C9.678,39.161,2.772,37.766,3.236,36.9A26.562,26.562,0,0,1,18.111,24.95a22.91,22.91,0,0,1,9.961-.863,39.112,39.112,0,0,1,9.562,2.789c3.652.531,9.961,5.844,12.351,5.18a101.334,101.334,0,0,1,39.843-3.719c2.457.4,4.715,1.062,4.848.6a1.394,1.394,0,0,0,0-.4A51.931,51.931,0,0,1,91.621,20.7c-.664-.8-2.59-1.262-5.512-.8a19.324,19.324,0,0,1-15.671-4.449,26.561,26.561,0,0,1-2.59-2.855C65.79,10.142,59.548,1.31,60.676.978A25.831,25.831,0,0,1,79.469,2.837,28.086,28.086,0,0,1,82.258,4.5a28.554,28.554,0,0,1,9.164,11.687c.73,1.394,1.66,3.918,2.723,6.64a14.144,14.144,0,0,0,4.051,6.64,52.393,52.393,0,0,0,5.113,1.992v3.519h-.332L99.39,33.649h0a17.266,17.266,0,0,0-2.789,0h-1.2a14.808,14.808,0,0,0-9.3,4.914A32.14,32.14,0,0,1,80.664,53.105Z" transform="translate(0 0)"/></g></svg>