<svg xmlns="http://www.w3.org/2000/svg" width="72.025" height="72.185" viewBox="0 0 72.025 72.185"><defs><style>.a{fill:#6e6e6e;fill-rule:evenodd;}</style></defs><g transform="matrix(0.966, -0.259, 0.259, 0.966, -0.038, 15.215)"><path class="a" d="M42.552,6.339c1.814.869,3.778,1.7,4.61,2s.793-.567-.227-.756A23.578,23.578,0,0,1,43.156,5.81a17.381,17.381,0,0,1-2.985-2.04c-.869-.945-1.511-.378-.567.68a11.9,11.9,0,0,0,2.947,1.814M10.171,20.281a59.321,59.321,0,0,0,6.159-2.456c1.134-.491.189-.982-.68-.416a21.877,21.877,0,0,1-4.232,1.474,13.451,13.451,0,0,1-3.212.6c-1.247,0-.642.945.831.945a4.685,4.685,0,0,0,1.134-.151ZM4.352,48.431a19.346,19.346,0,0,1,1.02-3.4c.529-.869,0-1.814-.416-.642a39.359,39.359,0,0,0-1.738,4.723,8.69,8.69,0,0,0-.529,2.758c.264,1.7,1.134,2.04.982.793a17.834,17.834,0,0,1,.68-4.232Zm14.811-8.048a20.631,20.631,0,0,1,.793-3.778c.416-.945,0-1.814-.529-.642A28.135,28.135,0,0,0,18.143,41.1a7.028,7.028,0,0,0-.227,2.494c.264,1.4,1.285,1.889,1.058.68a17.834,17.834,0,0,1,.189-3.892Zm21.2-12.658A8.539,8.539,0,0,0,38.584,29.5c-1.171,1.927-.227,2.3.378,1.171a15.529,15.529,0,0,1,2.267-2.532,24.371,24.371,0,0,1,3.325-2.8c.945-.453.982-1.511,0-.793s-2.683,1.889-4.194,3.174Zm5.554,2.494a10.92,10.92,0,0,1-1.7,1.814,15.114,15.114,0,0,1-10.126,3.778c-.718,0,1.474-5.781,2.116-7.255a8.237,8.237,0,0,1,1.474-2.116A14.7,14.7,0,0,1,46.9,21.528a14.4,14.4,0,0,1,3.778-2.191c.68-.453,1.1-.907-.642-1.134a36.386,36.386,0,0,0-7.972-.34,62.5,62.5,0,0,0-15.983,3.778c-1.549,1.02-5.441,6.121-4.988,8.577a9.824,9.824,0,0,1,2.947,7.557,16.776,16.776,0,0,1-.264,3.514,14.7,14.7,0,0,1-5.479,9.333c-.567.453-2.494-5.441-2.909-6.952a10.127,10.127,0,0,1-.378-1.058,9.673,9.673,0,0,1,3.023-9.824,24.182,24.182,0,0,0,3.778-8.426c.491-.945.907-2.078-1.058-.793a42.507,42.507,0,0,0-13.6,14.7,21.008,21.008,0,0,1,1.965,7.557A13.489,13.489,0,0,1,8.7,50.206a14.774,14.774,0,0,1-6.31,8.766C1.783,59.35.422,53.3.158,51.756v-.945a10.24,10.24,0,0,1,3.778-9.6A73.642,73.642,0,0,1,15.272,26.1,25.92,25.92,0,0,1,24.6,20.055c2.116-.529,1.7-1.1.264-2a3.778,3.778,0,0,0-5.29.793A10.126,10.126,0,0,1,9.226,22.964l-1.322-.3C5.523,22.284,1.594,21.49,1.858,21a15.114,15.114,0,0,1,8.464-6.8,13.036,13.036,0,0,1,5.668-.491,22.255,22.255,0,0,1,5.441,1.587c2.078.3,5.668,3.325,7.028,2.947a57.659,57.659,0,0,1,22.671-2.116c1.4.227,2.683.6,2.758.34a.793.793,0,0,0,0-.227,29.548,29.548,0,0,1-1.738-4.459c-.378-.453-1.474-.718-3.136-.453A11,11,0,0,1,40.1,8.795,15.114,15.114,0,0,1,38.622,7.17C37.451,5.772,33.9.747,34.542.558A14.7,14.7,0,0,1,45.235,1.616a15.982,15.982,0,0,1,1.587.945,16.247,16.247,0,0,1,5.214,6.65c.416.793.945,2.229,1.549,3.778a8.048,8.048,0,0,0,2.3,3.778A29.812,29.812,0,0,0,58.8,17.9v2H58.61l-2.04-.756h0a9.825,9.825,0,0,0-1.587,0H54.3a8.426,8.426,0,0,0-5.29,2.8A18.288,18.288,0,0,1,45.915,30.219Z" transform="translate(0 0)"/></g></svg>