<svg xmlns="http://www.w3.org/2000/svg" width="22.831" height="22.831" viewBox="0 0 22.831 22.831"><defs><style>.a{fill:#33cc82;}.b,.d{fill:none;}.b{stroke:#fff;stroke-linecap:round;stroke-linejoin:round;}.c{stroke:none;}</style></defs><path class="a" d="M47.064,40.97a6.1,6.1,0,1,0,6.1,6.1A6.1,6.1,0,0,0,47.064,40.97Zm0,10.092a4,4,0,1,1,4-4A4,4,0,0,1,47.064,51.062Z" transform="translate(-35.566 -35.426)"/><path class="a" d="M120.4,28.251a1.473,1.473,0,1,0,1.043.432A1.48,1.48,0,0,0,120.4,28.251Z" transform="translate(-102.655 -24.313)"/><g class="b"><rect class="c" width="22.831" height="22.831" rx="5"/><rect class="d" x="0.5" y="0.5" width="21.831" height="21.831" rx="4.5"/></g></svg>