<svg xmlns="http://www.w3.org/2000/svg" width="22.831" height="22.831" viewBox="0 0 22.831 22.831"><defs><style>.a{fill:#33cc82;}.b,.d{fill:none;}.b{stroke:#fff;stroke-linecap:round;stroke-linejoin:round;}.c{stroke:none;}</style></defs><path class="a" d="M14.557,125.458a1.033,1.033,0,0,0-.05-.1,7.713,7.713,0,0,0-1.455-1.722l-.015-.016-.008-.008-.008-.008h-.008q-.488-.475-.617-.639a.61.61,0,0,1-.107-.631,5.893,5.893,0,0,1,.686-1.02q.313-.413.5-.662,1.318-1.792,1.143-2.29l-.045-.078a.443.443,0,0,0-.236-.129,1.174,1.174,0,0,0-.488-.019l-2.194.015a.279.279,0,0,0-.152,0l-.1.023-.038.02-.03.023a.342.342,0,0,0-.084.082.538.538,0,0,0-.076.136,12.85,12.85,0,0,1-.815,1.753q-.282.483-.518.838a4.02,4.02,0,0,1-.4.522,2.785,2.785,0,0,1-.29.269q-.13.1-.2.086l-.13-.031a.514.514,0,0,1-.171-.191.869.869,0,0,1-.088-.3q-.023-.183-.027-.316t0-.374q.008-.242.008-.327,0-.3.011-.643t.019-.549q.008-.2.008-.429a1.84,1.84,0,0,0-.027-.354,1.233,1.233,0,0,0-.08-.249.417.417,0,0,0-.156-.187.869.869,0,0,0-.255-.105,4.964,4.964,0,0,0-1.029-.1,4.9,4.9,0,0,0-1.821.187,1.03,1.03,0,0,0-.29.234q-.137.171-.038.187a.928.928,0,0,1,.648.335l.046.094a1.514,1.514,0,0,1,.107.358,3.693,3.693,0,0,1,.069.569,6.2,6.2,0,0,1,0,.974q-.038.405-.072.631a1.285,1.285,0,0,1-.1.366,1.561,1.561,0,0,1-.091.171.133.133,0,0,1-.038.039.559.559,0,0,1-.206.039.477.477,0,0,1-.259-.109,1.845,1.845,0,0,1-.316-.3,4.006,4.006,0,0,1-.37-.534q-.206-.343-.427-.81l-.122-.226q-.114-.218-.312-.635t-.351-.806a.512.512,0,0,0-.183-.249l-.038-.023a.516.516,0,0,0-.122-.066.794.794,0,0,0-.175-.051l-2.088.016a.524.524,0,0,0-.434.148l-.031.047a.257.257,0,0,0-.023.125.632.632,0,0,0,.046.21q.457,1.1.994,2.119t.933,1.644q.4.623.808,1.176t.545.709q.133.156.21.234l.191.187a4.546,4.546,0,0,0,.537.448,9.138,9.138,0,0,0,.785.514,4.206,4.206,0,0,0,1,.413,3.393,3.393,0,0,0,1.112.129h.876a.6.6,0,0,0,.4-.171l.03-.039a.523.523,0,0,0,.057-.144.808.808,0,0,0,.027-.214,2.623,2.623,0,0,1,.049-.6,1.613,1.613,0,0,1,.13-.405,1,1,0,0,1,.164-.23.665.665,0,0,1,.13-.113.492.492,0,0,1,.061-.027.476.476,0,0,1,.431.121,2.554,2.554,0,0,1,.465.452q.217.269.522.6a3.615,3.615,0,0,0,.533.5l.152.093a1.835,1.835,0,0,0,.4.171.837.837,0,0,0,.427.039l1.951-.031a.868.868,0,0,0,.45-.1.384.384,0,0,0,.191-.214.616.616,0,0,0,0-.265A1,1,0,0,0,14.557,125.458Z" transform="translate(3.954 -110.349)"/><g class="b"><rect class="c" width="22.831" height="22.831" rx="5"/><rect class="d" x="0.5" y="0.5" width="21.831" height="21.831" rx="4.5"/></g></svg>